PathFileType	4	(X/Y/Z)	 s07c0102.trc
DataRate	CameraRate	NumFrames	NumMarkers	Units	OrigDataRate	OrigDataStartFrame	OrigNumFrames
200	200	4	48	mm	200	1751	2000
Frame#	Time	racr			lacr			c7			jug			rlel			rdr			llel			ldr			s2			lic			ric			lasi			rasi			rpsi			lpsi			rgt			lgt			rth1			rth2			rth3			rth4			rlfc			rmfc			rsh1			rsh2			rsh3			rsh4			rlmal			rcal			rtoe			rmt5			lth1			lth2			lth4			lth3			llfc			lmfc			lsh1			lsh2			lsh3			lsh4			llmal			lcal			ltoe			lmt5			SBIKE			LBIKE			RBIKE			
		X1	Y1	Z1	X2	Y2	Z2	X3	Y3	Z3	X4	Y4	Z4	X5	Y5	Z5	X6	Y6	Z6	X7	Y7	Z7	X8	Y8	Z8	X9	Y9	Z9	X10	Y10	Z10	X11	Y11	Z11	X12	Y12	Z12	X13	Y13	Z13	X14	Y14	Z14	X15	Y15	Z15	X16	Y16	Z16	X17	Y17	Z17	X18	Y18	Z18	X19	Y19	Z19	X20	Y20	Z20	X21	Y21	Z21	X22	Y22	Z22	X23	Y23	Z23	X24	Y24	Z24	X25	Y25	Z25	X26	Y26	Z26	X27	Y27	Z27	X28	Y28	Z28	X29	Y29	Z29	X30	Y30	Z30	X31	Y31	Z31	X32	Y32	Z32	X33	Y33	Z33	X34	Y34	Z34	X35	Y35	Z35	X36	Y36	Z36	X37	Y37	Z37	X38	Y38	Z38	X39	Y39	Z39	X40	Y40	Z40	X41	Y41	Z41	X42	Y42	Z42	X43	Y43	Z43	X44	Y44	Z44	X45	Y45	Z45	X46	Y46	Z46	X47	Y47	Z47	X48	Y48	Z48	
1751	8.7550	443.127519	1458.615735	-80.204426	446.855357	1447.335701	-335.881184	400.778695	1506.512088	-215.221763	357.966399	1365.949663	-209.138718	547.053596	1138.624808	-5.500827	728.418328	903.873357	-61.643765	551.244871	1135.942852	-428.251246	736.464842	902.969172	-390.432605	-141.692344	1202.783438	-245.043383	23.927532	1257.803852	-381.544113	18.445530	1255.406279	-88.176830	55.667362	1180.364805	-353.380391	34.836310	1201.705991	-106.016062	-120.332130	1243.609639	-192.298006	-102.692344	1251.363445	-300.783077	-31.889093	1132.522764	-41.555879	-30.132293	1095.731463	-408.683353	113.323717	1089.101466	-45.194385	200.026691	1081.156404	-57.175845	272.582350	1036.182573	-53.283945	209.140070	1110.935447	-77.772089	389.309157	956.997534	-87.743992	382.417120	943.458009	-194.348044	303.439844	846.408777	-65.507063	262.817480	769.710990	-82.752634	188.829126	721.570180	-79.747873	274.259106	763.085700	-121.478571	91.216469	629.235144	-80.675683	15.537889	632.623675	-108.932139	240.267895	448.564692	-122.410060	157.966198	466.804680	-51.931655	27.446791	986.297537	-420.973200	94.577812	928.820324	-422.602777	123.882978	948.369379	-411.665223	123.653527	844.608323	-419.696736	216.905502	696.655245	-378.047030	205.728348	676.640899	-285.292165	183.364720	557.378430	-404.707538	189.453511	473.491617	-386.865068	154.440633	390.205409	-395.096946	193.204043	474.919498	-344.769447	122.482946	258.931358	-392.850398	52.297790	224.615012	-362.336028	338.994281	181.920952	-353.980558	256.890300	162.257639	-416.723774	-260.196529	972.903579	-233.415301	-75.935348	83.445292	-438.464414	-82.843460	79.257367	-41.000771	
1752	8.7600	443.061270	1458.588990	-79.676758	447.298179	1447.409837	-335.467114	400.953512	1506.487079	-214.768614	358.233384	1365.860151	-208.784045	546.785513	1138.453900	-5.159428	728.334096	903.947604	-61.551715	551.192540	1135.871021	-428.032179	736.390844	902.939967	-390.383136	-141.409073	1202.861615	-244.815848	24.012608	1257.768561	-381.745016	18.824170	1255.325906	-88.243425	55.821700	1180.260713	-353.631008	35.385997	1201.668172	-106.322003	-120.002244	1243.698951	-192.097256	-102.509906	1251.375833	-300.792396	-30.872929	1133.132712	-41.353045	-30.246749	1095.636562	-408.696184	114.193078	1091.351725	-45.863244	200.987256	1084.336878	-58.062396	274.049752	1040.221538	-54.041095	209.673201	1114.134888	-78.706900	391.466617	961.840518	-88.474552	384.602891	947.978190	-195.062592	306.558901	850.552450	-66.030559	266.374763	773.303279	-83.274727	193.010433	724.664289	-80.043831	278.059835	766.730535	-121.860047	96.270830	631.286911	-80.670831	20.192934	633.370972	-108.855324	247.751046	452.814416	-122.498475	165.376795	469.696169	-51.772516	27.161468	986.013426	-421.040375	93.911495	928.074230	-422.340220	123.210823	947.518422	-411.155392	122.341628	843.686756	-419.257766	213.682237	694.706407	-377.874185	201.997341	674.682493	-284.996950	178.983184	555.763593	-404.629738	184.523854	471.846630	-386.823580	149.026776	388.756667	-395.164398	188.231998	472.988814	-344.337472	116.220039	257.574138	-392.808980	45.799028	223.901754	-362.361470	332.064792	178.486209	-354.104887	249.781524	159.608870	-416.666477	-260.175568	972.922495	-233.434884	-75.944964	83.445285	-438.458883	-82.852715	79.278403	-41.001640	
1753	8.7650	442.953801	1458.551191	-79.199973	447.612534	1447.410640	-335.076429	401.131343	1506.441763	-214.424211	358.331410	1365.805951	-208.460979	546.477273	1138.319952	-4.800433	728.258271	904.004428	-61.444879	551.158297	1135.832686	-427.816562	736.362829	902.899429	-390.354280	-141.188737	1202.951286	-244.599191	24.077723	1257.822519	-381.931292	19.359504	1255.215313	-88.253151	55.878815	1180.255697	-353.819415	35.896718	1201.697839	-106.538598	-119.700672	1243.813686	-191.864562	-102.380099	1251.433237	-300.736022	-29.911879	1133.681003	-41.194128	-30.360770	1095.694370	-408.716582	114.991304	1093.561438	-46.518959	201.795428	1087.320305	-58.790252	275.317397	1043.935772	-54.795444	210.203194	1117.091749	-79.522995	393.547103	966.470629	-89.217384	386.680666	952.362250	-195.753430	309.634005	854.438152	-66.608428	270.177783	776.790081	-83.722146	197.195510	727.611785	-80.235936	281.882091	770.315777	-122.257696	101.439496	633.000492	-80.642936	25.143441	633.796420	-108.678301	255.325100	456.754594	-122.550167	173.015359	472.636002	-51.554979	26.941946	985.839390	-421.068105	93.445726	927.710948	-422.597744	122.615050	946.597662	-410.384125	121.153531	842.942940	-418.845828	210.661529	692.995379	-377.767995	198.546062	672.879291	-284.694712	174.796954	554.408708	-404.577112	179.730322	470.503147	-386.757008	143.716233	387.608173	-395.219370	183.432161	471.510656	-344.351189	109.890055	256.680705	-392.947204	39.186331	223.627978	-362.383147	324.974958	175.321776	-354.192179	242.569781	157.444875	-416.856893	-260.159585	972.935899	-233.463923	-75.937080	83.443696	-438.454179	-82.864366	79.299823	-40.989817	
1754	8.7700	442.819241	1458.466694	-78.774050	447.810278	1447.359838	-334.671203	401.271351	1506.354736	-214.102147	358.326151	1365.730933	-208.139431	546.177914	1138.194763	-4.422652	728.170537	904.071911	-61.330837	551.213244	1135.832339	-427.614007	736.325182	902.870444	-390.332611	-141.033394	1203.009503	-244.403606	24.047508	1257.912981	-382.089333	19.810811	1255.138682	-88.267538	55.908550	1180.348501	-354.032457	36.304885	1201.774166	-106.652021	-119.491902	1243.952582	-191.637801	-102.335428	1251.539247	-300.663834	-29.037334	1134.166798	-41.094899	-30.554427	1095.764173	-408.696729	115.701560	1095.470892	-47.077745	202.582162	1090.041424	-59.485224	276.446177	1047.302511	-55.482917	210.592836	1119.992236	-80.151726	395.525055	970.869891	-89.930591	388.583282	956.572599	-196.543410	312.615476	858.144354	-67.197486	273.869331	779.913702	-84.166516	201.509158	730.091113	-80.509619	285.784092	773.629053	-122.581844	106.695223	634.312443	-80.673430	30.251622	633.859235	-108.563840	263.125449	460.406447	-122.614855	180.802774	475.291952	-51.378263	26.735262	985.771505	-421.043540	92.863245	927.239146	-422.073317	122.048809	945.864526	-409.726001	120.084578	842.303358	-418.317507	208.190174	691.633889	-377.468008	195.361065	671.451953	-284.382775	170.875619	553.312164	-404.529045	175.100963	469.393692	-386.696228	138.444870	386.812174	-395.292874	178.755314	470.415860	-344.237117	103.483853	256.052891	-393.066364	32.424311	223.747930	-362.492011	317.719569	172.468106	-354.206993	235.277084	155.788644	-417.290442	-260.138223	972.947857	-233.498802	-75.934670	83.415836	-438.462048	-82.884390	79.352275	-41.002458	
